<?xml version="1.0" encoding="UTF-8" standalone="no"?>
<!-- Created with Inkscape (http://www.inkscape.org/) -->

<svg
   xmlns:dc="http://purl.org/dc/elements/1.1/"
   xmlns:cc="http://creativecommons.org/ns#"
   xmlns:rdf="http://www.w3.org/1999/02/22-rdf-syntax-ns#"
   xmlns:svg="http://www.w3.org/2000/svg"
   xmlns="http://www.w3.org/2000/svg"
   xmlns:sodipodi="http://sodipodi.sourceforge.net/DTD/sodipodi-0.dtd"
   xmlns:inkscape="http://www.inkscape.org/namespaces/inkscape"
   id="svg2"
   version="1.1"
   inkscape:version="0.48.4 r9939"
   width="3000"
   height="1662.875"
   xml:space="preserve"
   sodipodi:docname="Logo.ai"><metadata
     id="metadata8"><rdf:RDF><cc:Work
         rdf:about=""><dc:format>image/svg+xml</dc:format><dc:type
           rdf:resource="http://purl.org/dc/dcmitype/StillImage" /><dc:title></dc:title></cc:Work></rdf:RDF></metadata><defs
     id="defs6"><clipPath
       clipPathUnits="userSpaceOnUse"
       id="clipPath16"><path
         d="m 0,1330.304 2399.996,0 L 2399.996,0 0,0 0,1330.304 z"
         id="path18" /></clipPath></defs><sodipodi:namedview
     pagecolor="#ffffff"
     bordercolor="#666666"
     borderopacity="1"
     objecttolerance="10"
     gridtolerance="10"
     guidetolerance="10"
     inkscape:pageopacity="0"
     inkscape:pageshadow="2"
     inkscape:window-width="640"
     inkscape:window-height="480"
     id="namedview4"
     showgrid="false"
     inkscape:zoom="0.11266667"
     inkscape:cx="1500"
     inkscape:cy="831.4375"
     inkscape:window-x="0"
     inkscape:window-y="25"
     inkscape:window-maximized="0"
     inkscape:current-layer="g10" /><g
     id="g10"
     inkscape:groupmode="layer"
     inkscape:label="Logo"
     transform="matrix(1.25,0,0,-1.25,0,1662.875)"><g
       id="g12"><g
         id="g14"
         clip-path="url(#clipPath16)"><text
           transform="matrix(0.99999984,0,0,-1,0.0017,322.6445)"
           id="text20"><tspan
             style="fill:#d8d9da;fill-opacity:1;fill-rule:nonzero;stroke:none;font-family:HHU Celeste Sans;font-variant:normal;font-weight:normal;font-stretch:normal;font-size:1240.9656;writing-mode:lr;-inkscape-font-specification:HHUCelesteSans"
             x="0 922.0374408 1719.9783216"
             y="0"
             sodipodi:role="line"
             id="tspan22">PÜS</tspan></text>
<text
           transform="matrix(1,0,0,-1,100.76,141.1992)"
           id="text24"><tspan
             style="fill:#016bb2;fill-opacity:1;fill-rule:nonzero;stroke:none;font-family:HHU Celeste Sans;font-variant:normal;font-weight:bold;font-stretch:normal;font-size:95.4589;writing-mode:lr;-inkscape-font-specification:HHUCelesteSans-Bold"
             x="0 49.4477102 72.8351407 118.369036 169.6304653 220.7964357 272.057865 320.6464451 359.4027585 429.56505 473.8579796 510.6096561 557.479976 598.0500085 642.3429381 693.5089085 742.0974886 764.3394123 797.2727328 848.4387032 885.1903797 907.4323034 958.5982738 1009.7642442 1054.0571738 1090.8088503 1129.5651637 1169.6579017 1221.1102488 1272.3716781 1316.6646077 1340.8157094 1392.0771387 1443.2431091 1494.5045384 1543.0931185 1581.8494319 1614.7827524 1651.5344289 1695.8273585 1719.9784602 1764.2713898 1803.0277032 1825.2696269 1876.3401384 1908.4143288 1959.5802992 2010.8417285 2034.9928302 2079.2857598 2116.0374363 2160.3303659"
             y="0"
             sodipodi:role="line"
             id="tspan26">Planungswerkzeug für überschneidungsfreies Studieren</tspan></text>
<g
           id="g28"
           transform="translate(833.6992,995.8851)"><path
             d="m 0,0 -120.418,0 c -15.735,0 -28.608,12.873 -28.608,28.608 l 0,48.113 c 0,15.734 12.873,28.607 28.608,28.607 l 120.418,0 c 15.734,0 28.608,-12.873 28.608,-28.607 l 0,-48.113 C 28.608,12.873 15.734,0 0,0"
             style="fill:#f8bdbe;fill-opacity:1;fill-rule:nonzero;stroke:none"
             id="path30" /></g><g
           id="g32"
           transform="translate(833.6992,995.8851)"><path
             d="m 0,0 -120.418,0 c -15.735,0 -28.608,12.873 -28.608,28.608 l 0,48.113 c 0,15.734 12.873,28.607 28.608,28.607 l 120.418,0 c 15.734,0 28.608,-12.873 28.608,-28.607 l 0,-48.113 C 28.608,12.873 15.734,0 0,0 z"
             style="fill:none;stroke:#221f1f;stroke-opacity:1;stroke-width:7.343;stroke-linecap:butt;stroke-linejoin:miter;stroke-miterlimit:4;stroke-dasharray:none"
             id="path34" /></g><text
           transform="matrix(1,0,0,-1,737.8047,1030.3027)"
           id="text36"><tspan
             style="fill:#000000;fill-opacity:1;fill-rule:nonzero;stroke:none;font-family:HHU Celeste Sans;font-variant:normal;font-weight:normal;font-stretch:normal;font-size:66.0869;writing-mode:lr;-inkscape-font-specification:HHUCelesteSans"
             x="0 35.686926"
             y="0"
             sodipodi:role="line"
             id="tspan38">48</tspan></text>
<g
           id="g40"
           transform="translate(833.6992,862.4481)"><path
             d="m 0,0 -120.418,0 c -15.735,0 -28.608,12.873 -28.608,28.608 l 0,48.113 c 0,15.734 12.873,28.607 28.608,28.607 l 120.418,0 c 15.734,0 28.608,-12.873 28.608,-28.607 l 0,-48.113 C 28.608,12.873 15.734,0 0,0"
             style="fill:#f1f2bf;fill-opacity:1;fill-rule:nonzero;stroke:none"
             id="path42" /></g><g
           id="g44"
           transform="translate(833.6992,862.4481)"><path
             d="m 0,0 -120.418,0 c -15.735,0 -28.608,12.873 -28.608,28.608 l 0,48.113 c 0,15.734 12.873,28.607 28.608,28.607 l 120.418,0 c 15.734,0 28.608,-12.873 28.608,-28.607 l 0,-48.113 C 28.608,12.873 15.734,0 0,0 z"
             style="fill:none;stroke:#221f1f;stroke-opacity:1;stroke-width:7.343;stroke-linecap:butt;stroke-linejoin:miter;stroke-miterlimit:4;stroke-dasharray:none"
             id="path46" /></g><text
           transform="matrix(1,0,0,-1,719.9615,896.8672)"
           id="text48"><tspan
             style="fill:#000000;fill-opacity:1;fill-rule:nonzero;stroke:none;font-family:HHU Celeste Sans;font-variant:normal;font-weight:normal;font-stretch:normal;font-size:66.0869;writing-mode:lr;-inkscape-font-specification:HHUCelesteSans"
             x="0 35.686926 71.373852"
             y="0"
             sodipodi:role="line"
             id="tspan50">101</tspan></text>
<g
           id="g52"
           transform="translate(833.6956,729.0111)"><path
             d="m 0,0 -120.418,0 c -15.735,0 -28.608,12.873 -28.608,28.608 l 0,48.113 c 0,15.734 12.873,28.607 28.608,28.607 l 120.418,0 c 15.734,0 28.608,-12.873 28.608,-28.607 l 0,-48.113 C 28.608,12.873 15.734,0 0,0"
             style="fill:#b16c2b;fill-opacity:1;fill-rule:nonzero;stroke:none"
             id="path54" /></g><g
           id="g56"
           transform="translate(833.6956,729.0111)"><path
             d="m 0,0 -120.418,0 c -15.735,0 -28.608,12.873 -28.608,28.608 l 0,48.113 c 0,15.734 12.873,28.607 28.608,28.607 l 120.418,0 c 15.734,0 28.608,-12.873 28.608,-28.607 l 0,-48.113 C 28.608,12.873 15.734,0 0,0 z"
             style="fill:none;stroke:#221f1f;stroke-opacity:1;stroke-width:7.343;stroke-linecap:butt;stroke-linejoin:miter;stroke-miterlimit:4;stroke-dasharray:none"
             id="path58" /></g><text
           transform="matrix(1,0,0,-1,737.8047,763.4326)"
           id="text60"><tspan
             style="fill:#000000;fill-opacity:1;fill-rule:nonzero;stroke:none;font-family:HHU Celeste Sans;font-variant:normal;font-weight:normal;font-stretch:normal;font-size:66.0869;writing-mode:lr;-inkscape-font-specification:HHUCelesteSans"
             x="0 35.686926"
             y="0"
             sodipodi:role="line"
             id="tspan62">17</tspan></text>
<g
           id="g64"
           transform="translate(833.6956,595.5741)"><path
             d="m 0,0 -120.418,0 c -15.735,0 -28.608,12.873 -28.608,28.608 l 0,48.113 c 0,15.734 12.873,28.607 28.608,28.607 l 120.418,0 c 15.734,0 28.608,-12.873 28.608,-28.607 l 0,-48.113 C 28.608,12.873 15.734,0 0,0"
             style="fill:#d0dc27;fill-opacity:1;fill-rule:nonzero;stroke:none"
             id="path66" /></g><g
           id="g68"
           transform="translate(833.6956,595.5741)"><path
             d="m 0,0 -120.418,0 c -15.735,0 -28.608,12.873 -28.608,28.608 l 0,48.113 c 0,15.734 12.873,28.607 28.608,28.607 l 120.418,0 c 15.734,0 28.608,-12.873 28.608,-28.607 l 0,-48.113 C 28.608,12.873 15.734,0 0,0 z"
             style="fill:none;stroke:#221f1f;stroke-opacity:1;stroke-width:7.343;stroke-linecap:butt;stroke-linejoin:miter;stroke-miterlimit:4;stroke-dasharray:none"
             id="path70" /></g><text
           transform="matrix(1,0,0,-1,737.8047,629.9971)"
           id="text72"><tspan
             style="fill:#000000;fill-opacity:1;fill-rule:nonzero;stroke:none;font-family:HHU Celeste Sans;font-variant:normal;font-weight:normal;font-stretch:normal;font-size:66.0869;writing-mode:lr;-inkscape-font-specification:HHUCelesteSans"
             x="0 35.686926"
             y="0"
             sodipodi:role="line"
             id="tspan74">33</tspan></text>
<g
           id="g76"
           transform="translate(833.6992,462.1371)"><path
             d="m 0,0 -120.418,0 c -15.735,0 -28.608,12.874 -28.608,28.608 l 0,48.113 c 0,15.734 12.873,28.607 28.608,28.607 l 120.418,0 c 15.734,0 28.608,-12.873 28.608,-28.607 l 0,-48.113 C 28.608,12.874 15.734,0 0,0"
             style="fill:#85b2a9;fill-opacity:1;fill-rule:nonzero;stroke:none"
             id="path78" /></g><g
           id="g80"
           transform="translate(833.6992,462.1371)"><path
             d="m 0,0 -120.418,0 c -15.735,0 -28.608,12.874 -28.608,28.608 l 0,48.113 c 0,15.734 12.873,28.607 28.608,28.607 l 120.418,0 c 15.734,0 28.608,-12.873 28.608,-28.607 l 0,-48.113 C 28.608,12.874 15.734,0 0,0 z"
             style="fill:none;stroke:#221f1f;stroke-opacity:1;stroke-width:7.343;stroke-linecap:butt;stroke-linejoin:miter;stroke-miterlimit:4;stroke-dasharray:none"
             id="path82" /></g><text
           transform="matrix(1,0,0,-1,737.8047,496.5586)"
           id="text84"><tspan
             style="fill:#000000;fill-opacity:1;fill-rule:nonzero;stroke:none;font-family:HHU Celeste Sans;font-variant:normal;font-weight:normal;font-stretch:normal;font-size:66.0869;writing-mode:lr;-inkscape-font-specification:HHUCelesteSans"
             x="0 35.686926"
             y="0"
             sodipodi:role="line"
             id="tspan86">12</tspan></text>
<g
           id="g88"
           transform="translate(833.6992,328.7001)"><path
             d="m 0,0 -120.418,0 c -15.735,0 -28.608,12.874 -28.608,28.608 l 0,48.113 c 0,15.734 12.873,28.607 28.608,28.607 l 120.418,0 c 15.734,0 28.608,-12.873 28.608,-28.607 l 0,-48.113 C 28.608,12.874 15.734,0 0,0"
             style="fill:#663f34;fill-opacity:1;fill-rule:nonzero;stroke:none"
             id="path90" /></g><g
           id="g92"
           transform="translate(833.6992,328.7001)"><path
             d="m 0,0 -120.418,0 c -15.735,0 -28.608,12.874 -28.608,28.608 l 0,48.113 c 0,15.734 12.873,28.607 28.608,28.607 l 120.418,0 c 15.734,0 28.608,-12.873 28.608,-28.607 l 0,-48.113 C 28.608,12.874 15.734,0 0,0 z"
             style="fill:none;stroke:#221f1f;stroke-opacity:1;stroke-width:7.343;stroke-linecap:butt;stroke-linejoin:miter;stroke-miterlimit:4;stroke-dasharray:none"
             id="path94" /></g><text
           transform="matrix(1,0,0,-1,737.8047,363.123)"
           id="text96"><tspan
             style="fill:#ffffff;fill-opacity:1;fill-rule:nonzero;stroke:none;font-family:HHU Celeste Sans;font-variant:normal;font-weight:normal;font-stretch:normal;font-size:66.0869;writing-mode:lr;-inkscape-font-specification:HHUCelesteSans"
             x="0 35.686926"
             y="0"
             sodipodi:role="line"
             id="tspan98">86</tspan></text>
</g></g></g></svg>